<?xml version="1.0" encoding="utf-8"?>
<!-- Generator: Adobe Illustrator 21.0.0, SVG Export Plug-In . SVG Version: 6.00 Build 0)  -->
<svg version="1.1" id="Layer_1" xmlns="http://www.w3.org/2000/svg" xmlns:xlink="http://www.w3.org/1999/xlink" x="0px" y="0px"
	 viewBox="0 0 305 85.7" style="enable-background:new 0 0 305 85.7;" xml:space="preserve">
<style type="text/css">
	.st0{fill:#FFFFFF;}
	.st1{fill:#010101;}
	.st2{fill:#E13D31;}
	.st3{fill:#2D51A3;}
	.st4{fill:#20B24B;}
	.st5{fill:#FDB71D;}
</style>
<g>
	<path class="st0" d="M80.6,42.8c0,21.8-17.7,39.5-39.5,39.5S1.5,64.7,1.5,42.8S19.2,3.3,41,3.3S80.6,21,80.6,42.8"/>
	<path class="st1" d="M37.7,54c1-4.4,2.1-8.6,3.5-12.6c-8.5,6.1-17.4,14.3-24,20.8c4.4,5.4,10.6,9.3,17.7,10.7
		C35.5,66.4,36.4,60,37.7,54"/>
	<path class="st2" d="M24.8,30.2c5.8-3.7,12.2-6.9,18.8-9.6c4.9-2,9.2-3.4,12.6-4.4c-4.5-2.5-9.6-4-15.1-4
		c-16.3,0-29.6,12.7-30.6,28.8C14.8,37,19.6,33.4,24.8,30.2"/>
	<path class="st3" d="M65.5,24.5c-3.1,7.4-5.2,15.6-6.2,24.3c-0.7,6.1-0.8,12.3-0.5,19c7.7-5.6,12.8-14.6,12.8-24.9
		C71.7,35.9,69.4,29.6,65.5,24.5"/>
	<path class="st4" d="M12.8,61.1c25.5-25.3,36.8-29.2,36.8-29.2c-7.6,15-10.2,31.4-10.8,44.5c0.7,0,1.5,0.1,2.3,0.1
		c5.1,0,9.9-1.1,14.3-3.2c-1.2-13.3-1.4-34.8,8.7-54.9c0,0-31.9,5.5-56.1,30.5C8.7,53.3,10.4,57.4,12.8,61.1"/>
	<path class="st0" d="M65.5,24.5c-0.9-1.2-1.8-2.3-2.9-3.3c-8.1,17.7-8.5,36.2-7.6,48.9c1.3-0.7,2.6-1.5,3.8-2.3
		c-0.4-6.7-0.2-12.9,0.5-19C60.3,40,62.4,31.8,65.5,24.5"/>
	<path class="st0" d="M60.4,19.1c-1.3-1.1-2.8-2.1-4.3-2.9c-3.3,1-7.7,2.4-12.6,4.4c-6.6,2.7-12.9,5.9-18.8,9.6
		c-5.2,3.3-10,6.9-14.4,10.8c0,0.6-0.1,1.2-0.1,1.9c0,1.1,0.1,2.3,0.2,3.4C29.4,28.2,51.8,21.3,60.4,19.1"/>
	<path class="st5" d="M35,72.9c1.3,0.3,2.6,0.4,3.9,0.5c0.9-12.5,3.6-27.6,10.6-41.5c0,0-10.7,3.6-34.6,27.1
		c0.7,1.1,1.5,2.2,2.3,3.3c6.6-6.5,15.5-14.7,24-20.8c-1.4,4-2.6,8.2-3.5,12.6C36.4,60,35.5,66.4,35,72.9"/>
	<path class="st0" d="M199.1,58.2c-5.2,0-5.6-10.4-5.6-13.6c0-4.1,0.5-13.6,5.6-13.6c5,0,5.6,9.5,5.6,13.6
		C204.6,47.7,204.2,58.2,199.1,58.2 M199.1,22.6c-4.1,0-7.8,1.8-10.4,5c-3.1,3.9-4.7,9.6-4.7,16.9c0,7.4,1.6,13.1,4.7,16.9
		c2.6,3.2,6.3,5,10.4,5c4.1,0,7.8-1.8,10.4-5c3.1-3.9,4.7-9.6,4.7-16.9c0-7.4-1.6-13.1-4.7-16.9C206.9,24.4,203.2,22.6,199.1,22.6
		 M235.6,42.4c0,1.5,0.1,2.8,0.2,4.1l-9.5-23.2h-8.5v42.6h8.9l0-19.6l-0.1-1.7l-0.2-2.6l9.7,23.9h8.4V23.2h-8.9V42.4z M146.5,31.7
		h6.5v34.2h8.9V31.7h6.6v-8.4h-22V31.7z M171.3,65.8h8.9V23.2h-8.9V65.8z M101.6,50.9l2-12.3l1-7h0.1l1,7l2.3,12.3H101.6z
		 M100.2,19.8l-10.7,46h9l1.6-7.7h9.2l1.7,7.7h9.7l-11-46H100.2z M138.9,22.7c-5.3,0-10.1,2.4-13.6,6.8c-3.1,4-4.9,9.3-4.9,14.6
		c0,5.8,1.7,11.2,4.9,15.2c3.5,4.5,8.3,6.9,14,6.9c1.4,0,2.7-0.2,4-0.7l0.2-0.1V57l-0.4,0.1c-1,0.3-2,0.6-3.1,0.6
		c-7.4,0-10.1-8.1-10.1-13.6c0-6.3,3.1-12.8,10.1-12.8c0.9,0,1.9,0.1,3,0.4l0.4,0.1v-8.3l-0.2-0.1C141.7,23,140.3,22.7,138.9,22.7
		 M284.4,50.9l2-12.3l1-7h0.1l1,7l2.3,12.3H284.4z M292.5,19.8h-9.6l-10.7,46h9l1.6-7.7h9.2l1.7,7.7h9.7L292.5,19.8z M257.5,31.8
		c0-2.8,1.8-4.5,4.6-4.5c2.5,0,4.8,1.3,6.6,2.9v-8.8c-2.5-1.5-5.1-2.3-8.1-2.3c-7.8,0-12,6.3-12,13.5c0,6.7,3.2,10.1,8.5,13.7
		c2.6,1.8,5.4,3.2,5.4,6.7c0,3-2.3,5-5.2,5c-2.7,0-4.8-1-6.9-2.4v8.7c2.1,1.5,5.2,2.3,7.8,2.3c8.5,0,13.2-6.2,13.2-14.3
		C271.3,39.8,257.5,39.4,257.5,31.8"/>
</g>
</svg>
