<?xml version="1.0" encoding="utf-8"?>
<!-- Generator: Adobe Illustrator 21.0.0, SVG Export Plug-In . SVG Version: 6.00 Build 0)  -->
<svg version="1.1" id="Layer_1" xmlns="http://www.w3.org/2000/svg" xmlns:xlink="http://www.w3.org/1999/xlink" x="0px" y="0px"
	 viewBox="0 0 900.2 900.2" style="enable-background:new 0 0 900.2 900.2;" xml:space="preserve">
<style type="text/css">
	.st0{clip-path:url(#SVGID_2_);fill:#FFFFFF;}
	.st1{clip-path:url(#SVGID_2_);}
	.st2{clip-path:url(#SVGID_2_);fill:#E03C31;}
	.st3{clip-path:url(#SVGID_2_);fill:#0047BB;}
	.st4{clip-path:url(#SVGID_2_);fill:#05B616;}
	.st5{clip-path:url(#SVGID_2_);fill:#FFB81C;}
</style>
<g>
	<defs>
		<rect id="SVGID_1_" width="900.2" height="900.2"/>
	</defs>
	<clipPath id="SVGID_2_">
		<use xlink:href="#SVGID_1_"  style="overflow:visible;"/>
	</clipPath>
	<path class="st0" d="M800.1,450.1c0,193.3-156.7,350-350,350s-350-156.7-350-350s156.7-350,350-350S800.1,256.8,800.1,450.1"/>
	<path class="st1" d="M420.7,549c8.5-38.6,19-75.8,31.4-111.4c-75,53.8-154,126.7-212.2,183.8c39.1,47.9,94.1,82.1,157.1,94.7
		C401,658.3,409,602.2,420.7,549"/>
	<path class="st2" d="M306.5,337.9c51.8-32.7,107.6-61.3,166-85.2c43.4-17.8,81.7-30.2,111.3-38.7c-39.5-22.4-85.1-35.2-133.8-35.2
		c-144.2,0-262.2,112.6-270.7,254.6C218.3,398.8,260.8,366.8,306.5,337.9"/>
	<path class="st3" d="M667.1,287.4c-27.8,65.4-46.2,137.7-54.9,215.4c-6,53.7-7.4,108.9-4.2,167.8
		c68.6-49.2,113.3-129.7,113.3-220.5C721.3,389,701.2,332.7,667.1,287.4"/>
	<path class="st4" d="M200.1,611.5c225.5-224.4,325.5-258.4,325.5-258.4c-67,133.2-90,278.1-95.6,393.8c6.6,0.4,13.3,0.7,20,0.7
		c45.2,0,88-10.1,126.4-28.1c-10.6-117.9-12.5-308.1,77.2-486.3c0,0-282.3,48.6-496.4,270C164.4,542.5,179.2,579.1,200.1,611.5"/>
	<path class="st0" d="M667.1,287.4c-7.8-10.3-16.3-20.1-25.4-29.2c-71.3,157.1-75.2,320.5-67.5,433.1c11.8-6.1,23.1-13,33.8-20.7
		c-3.2-58.9-1.8-114.2,4.2-167.8C620.9,425.1,639.3,352.8,667.1,287.4"/>
	<path class="st0" d="M621.9,240.2c-11.9-9.7-24.6-18.5-38-26.1c-29.6,8.4-67.9,20.9-111.3,38.7c-58.4,23.9-114.2,52.6-166,85.2
		c-45.7,28.8-88.3,60.8-127.2,95.6c-0.3,5.5-0.5,11-0.5,16.6c0,10.1,0.6,20.1,1.6,30C347,320.7,545.7,259,621.9,240.2"/>
	<path class="st5" d="M396.9,716.1c11.3,2.3,22.9,3.8,34.8,4.6c7.7-110.9,31.9-244.3,94-367.6c0,0-94.4,32.1-306.4,239.5
		c6.2,10.1,13.1,19.7,20.6,28.9c58.2-57.1,137.2-130,212.2-183.8c-12.4,35.5-22.9,72.7-31.4,111.3C409,602.2,401,658.3,396.9,716.1"
		/>
</g>
</svg>
